<svg xmlns="http://www.w3.org/2000/svg" xmlns:xlink="http://www.w3.org/1999/xlink" fill="none" version="1.1" width="300" height="299.9999694824219" viewBox="0 0 300 299.9999694824219"><g><g><ellipse cx="150" cy="151.99364185333252" rx="150" ry="138.88888549804688" fill="#314683" fill-opacity="1"/></g><g><path d="M149.5,12.962963104248066L273.775,228.24096310424804L25.2254,228.24096310424804L149.5,12.962963104248066Z" fill="#24A2C5" fill-opacity="1"/></g><g transform="matrix(-0.9998671412467957,0.01191713847219944,-0.022295156493782997,-0.9997514486312866,597.8171084704725,571.1422354894864)"><path d="M435.8927314453125,287.3689270019531L557.2817314453125,502.94892700195317L314.5037314453125,502.94892700195317L435.8927314453125,287.3689270019531Z" fill="#24A558" fill-opacity="1"/></g><g><path d="M40.8438,177.11453308105467L39.9062,183.67703308105467L15.796875,183.67703308105467L23.92188,124.67703308105469L31.125,124.67703308105469L23.92188,177.11453308105467L40.8438,177.11453308105467ZM67.0469,139.67703308105467L74.0312,139.67703308105467L67.7656,183.67703308105467L61.2031,183.67703308105467L61.5625,179.2082330810547Q59.7656,181.86453308105467,57.5625,183.0207330810547Q55.375,184.17703308105467,53.2812,184.17703308105467Q50.7031,184.17703308105467,48.6406,182.91143308105467Q46.5938,181.6457330810547,45.6562,178.81763308105468Q44.7188,175.98953308105467,45.375,171.25513308105468L49.8281,139.67703308105467L56.8906,139.67703308105467L52.5,170.0207330810547Q51.4219,177.61453308105467,56.1719,177.61453308105467Q58.4688,177.61453308105467,60.1875,175.4739330810547Q61.9219,173.31763308105468,62.7188,169.9582330810547L67.0469,139.67703308105467ZM76.9531,139.67703308105467L81.7812,139.67703308105467L82.1406,137.05203308105467Q82.9219,131.05203308105467,84.6562,127.70823308105469Q86.3906,124.36453308105469,88.7969,123.02073308105469Q91.2031,121.67703308105469,94.0938,121.67703308105469Q96.4688,121.67703308105469,98.0469,122.19263308105468L97.1094,128.69263308105468Q96.5312,128.55203308105467,95.7812,128.3957330810547Q95.0312,128.23953308105467,94.375,128.23953308105467Q91.3594,128.23953308105467,90.3438,131.25513308105468Q89.3438,134.2707330810547,88.6094,139.67703308105467L96.6875,139.67703308105467L95.75,146.23953308105467L87.75,146.23953308105467L82.7188,183.67703308105467L75.7344,183.67703308105467L80.9062,146.23953308105467L76.0156,146.23953308105467L76.9531,139.67703308105467ZM96.9531,139.67703308105467L101.7812,139.67703308105467L102.1406,137.05203308105467Q102.9219,131.05203308105467,104.6562,127.70823308105469Q106.3906,124.36453308105469,108.7969,123.02073308105469Q111.2031,121.67703308105469,114.0938,121.67703308105469Q116.469,121.67703308105469,118.047,122.19263308105468L117.109,128.69263308105468Q116.531,128.55203308105467,115.781,128.3957330810547Q115.031,128.23953308105467,114.375,128.23953308105467Q111.3594,128.23953308105467,110.3438,131.25513308105468Q109.3438,134.2707330810547,108.6094,139.67703308105467L116.688,139.67703308105467L115.75,146.23953308105467L107.75,146.23953308105467L102.7188,183.67703308105467L95.7344,183.67703308105467L100.9062,146.23953308105467L96.0156,146.23953308105467L96.9531,139.67703308105467ZM139.922,183.67703308105467L133.297,183.67703308105467L133.656,179.50513308105468Q132.078,181.66143308105467,130.094,182.91143308105467Q128.10899999999998,184.17703308105467,125.953,184.17703308105467Q122.5,184.17703308105467,120.016,181.88013308105468Q117.531,179.59893308105467,116.594,174.4114330810547Q115.656,169.2239330810547,116.875,160.55203308105467Q118.391,149.69263308105468,122.391,144.44263308105468Q126.391,139.17703308105467,131.64100000000002,139.17703308105467Q136.469,139.17703308105467,138.625,143.56763308105468L139.125,139.67703308105467L146.109,139.67703308105467L139.922,183.67703308105467ZM124.016,161.36453308105467Q123.438,165.8957330810547,123.391,169.5832330810547Q123.359,173.2707330810547,124.359,175.44263308105468Q125.375,177.61453308105467,127.828,177.61453308105467Q129.547,177.61453308105467,130.953,176.38013308105468Q132.35899999999998,175.13013308105468,133.35899999999998,173.1457330810547Q134.375,171.1457330810547,134.953,168.9582330810547L137.25,153.13013308105468Q137.328,149.8489330810547,135.98399999999998,147.80203308105467Q134.656,145.73953308105467,132.281,145.73953308105467Q130.062,145.73953308105467,128.406,147.88013308105468Q126.75,150.00513308105468,125.656,153.55203308105467Q124.578,157.0989330810547,124.016,161.36453308105467ZM149.734,156.11453308105467L166.438,156.11453308105467L165.5,162.67703308105467L148.797,162.67703308105467L149.734,156.11453308105467ZM168.797,183.67703308105467L176.922,124.67703308105469L186.5,124.67703308105469Q191.469,124.67703308105469,194.922,126.64573308105469Q198.391,128.61453308105467,200,132.0364330810547Q201.625,135.4582330810547,201.047,139.88013308105468Q199.891,148.75513308105468,191.469,151.9582330810547Q195.359,153.2707330810547,197.406,155.6614330810547Q199.469,158.05203308105467,200.109,160.94263308105468Q200.766,163.8332330810547,200.406,166.69263308105468Q199.469,174.5207330810547,194.031,179.09893308105467Q188.594,183.67703308105467,179.234,183.67703308105467L168.797,183.67703308105467ZM185.719,131.23953308105467L183.266,131.23953308105467L180.812,148.67703308105467L183.844,148.67703308105467Q187.938,148.67703308105467,190.422,146.31763308105468Q192.906,143.94263308105468,193.422,140.11453308105467Q193.984,135.81763308105468,191.969,133.5364330810547Q189.953,131.23953308105467,185.719,131.23953308105467ZM181.391,155.23953308105467L179.875,155.23953308105467L176.922,177.11453308105467L180.094,177.11453308105467Q184.984,177.11453308105467,188.469,174.5364330810547Q191.969,171.9582330810547,192.703,166.9582330810547Q193.344,161.88013308105468,190.562,158.56763308105468Q187.797,155.23953308105467,181.391,155.23953308105467ZM210.344,183.67703308105467L203.359,183.67703308105467L211.922,122.67703308105469L218.906,122.67703308105469L210.344,183.67703308105467ZM230.391,184.17703308105467Q223.406,184.17703308105467,220.812,178.7082330810547Q218.219,173.23953308105467,219.734,161.73953308105467Q221.25,150.11453308105467,225.234,144.6457330810547Q229.234,139.17703308105467,236.078,139.17703308105467Q243.141,139.17703308105467,245.719,144.6457330810547Q248.312,150.11453308105467,246.812,161.73953308105467Q245.297,173.23953308105467,241.297,178.7082330810547Q237.297,184.17703308105467,230.391,184.17703308105467ZM230.891,177.61453308105467Q234.203,177.61453308105467,236.328,173.75513308105468Q238.453,169.88013308105468,239.609,161.73953308105467Q240.828,153.5364330810547,239.812,149.6457330810547Q238.812,145.73953308105467,235.5,145.73953308105467Q232.344,145.73953308105467,230.25,149.6457330810547Q228.156,153.5364330810547,226.938,161.73953308105467Q225.781,169.88013308105468,226.719,173.75513308105468Q227.656,177.61453308105467,230.891,177.61453308105467ZM276.422,179.72393308105467Q275.125,189.0207330810547,271.562,194.09893308105467Q268,199.17703308105467,260.875,199.17703308105467Q256.344,199.17703308105467,253.062,196.30203308105467Q249.781,193.42703308105467,248.266,188.23953308105467L255.047,185.8957330810547Q255.906,189.03643308105467,257.625,190.81763308105468Q259.35900000000004,192.61453308105467,261.51599999999996,192.61453308105467Q264.688,192.61453308105467,266.875,189.56763308105468Q269.078,186.5207330810547,269.73400000000004,179.28643308105467Q268.14099999999996,181.55203308105467,266.156,182.86453308105467Q264.188,184.17703308105467,261.953,184.17703308105467Q259.578,184.17703308105467,257.51599999999996,182.98953308105467Q255.469,181.81763308105468,254.062,179.13013308105468Q252.656,176.44263308105468,252.297,171.86453308105467Q251.938,167.2864330810547,252.875,160.55203308105467Q254.391,149.69263308105468,258.39099999999996,144.44263308105468Q262.39099999999996,139.17703308105467,267.64099999999996,139.17703308105467Q272.469,139.17703308105467,274.625,143.56763308105468L275.125,139.67703308105467L282.109,139.67703308105467L276.422,179.72393308105467ZM260.01599999999996,161.36453308105467Q259.438,165.8957330810547,259.35900000000004,169.5832330810547Q259.281,173.2707330810547,260.281,175.44263308105468Q261.297,177.61453308105467,263.828,177.61453308105467Q265.547,177.61453308105467,266.953,176.38013308105468Q268.35900000000004,175.13013308105468,269.35900000000004,173.1457330810547Q270.375,171.1457330810547,270.953,168.9582330810547L273.25,153.13013308105468Q273.328,149.8489330810547,271.984,147.80203308105467Q270.656,145.73953308105467,268.281,145.73953308105467Q266.062,145.73953308105467,264.406,147.88013308105468Q262.75,150.00513308105468,261.656,153.55203308105467Q260.578,157.0989330810547,260.01599999999996,161.36453308105467Z" fill="#FFFFFF" fill-opacity="1"/></g></g></svg>